<?xml version="1.0" encoding="utf-8"?>
<svg xmlns="http://www.w3.org/2000/svg" viewBox="0 0 52.1 30">
	<title>A drawing of a human eye.</title>
	<path d="m17.382 29.831c-0.0849-0.1586-0.1764-0.1685-1.5667-0.1685-2.0946 0-2.2475-0.1353-1.2794-1.1328 0.8202-0.8449 0.8172-0.9232-0.0367-0.9555l-0.979 0.3158c-0.2165 0.2231-0.4047 0.3405-0.546 0.3405-0.1225 0-0.2684 0.0752-0.3376 0.1739-0.1216 0.1737-0.1221 0.1737-0.3417-0.0459-0.2707-0.2707-0.2721-0.2964-0.0153-0.2964 0.5798 0 1.17-1.3587 0.673-1.5494-0.2602-0.0999-0.5406-0.0488-0.6444 0.1173-0.0632 0.1013-0.1965 0.1685-0.3339 0.1685-0.1602 0-0.3343 0.1103-0.5811 0.3681-0.2353 0.2459-0.403 0.3549-0.505 0.3282-0.0934-0.0244-0.2319 0.0454-0.3561 0.1794-0.2411 0.2602-0.5304 0.2866-0.6038 0.0552-0.0286-0.0903-0.12541-0.1874-0.215-0.2158-0.21779-0.0691 0.5694-0.8836 0.854-0.8836 0.2743 0 0.8026-0.5707 0.6919-0.7474-0.2062-0.329-0.852-0.2271-1.26 0.1988-0.58982 0.6156-1.4074 0.5566-1.4455-0.1042l0.23998-0.4423c0.29999 0 0.78008-0.4342 0.73599-0.6657-0.0437-0.2293-1.1296-0.2401-1.202-0.0119-0.0788 0.2482-0.35828 0.2135-0.63077-0.0782-0.21543-0.2306-0.22142-0.2543-0.0759-0.3005 0.12468-0.0396 0.15812-0.1333 0.1587-0.4446 3.8e-4 -0.2169 0.0242-0.5901 0.053-0.8293 0.0518-0.4313 0.0491-0.4379-0.33769-0.8138-0.21446-0.2084-0.38993-0.4361-0.38993-0.5059 0-0.1946-0.093-0.3935-0.18397-0.3935-0.17084 0-0.57417-0.4979-0.57417-0.7089 0-0.1251-0.071-0.2607-0.16848-0.3215-0.24289-0.1517-0.24289-0.9043 0-1.056 0.10676-0.0667 0.16848-0.1965 0.16848-0.3543 0-0.1628 0.0583-0.2802 0.16847-0.3392 0.10461-0.056 0.16874-0.1769 0.16916-0.3188 5e-4 -0.1648 0.10648-0.3222 0.37907-0.563 0.34376-0.3036 0.3784-0.3692 0.3784-0.7168 0-0.2914 0.0402-0.4077 0.16847-0.4878 0.097-0.0606 0.16848-0.1964 0.16848-0.3203 0-0.2894 1.059-1.3481 1.4491-1.4488 0.23322-0.0602 0.28459-0.1182 0.31994-0.3615 0.0361-0.2485 0.0781-0.2935 0.29484-0.316 0.45776-0.0477 0.66646-0.8168 0.30926-1.14-0.23027-0.2084-0.90832-0.1896-1.0448 0.029-0.17085 0.2736-0.57012 0.2288-0.57012-0.0639 0-0.1413 0.0661-0.2738 0.16848-0.3377 0.10259-0.0641 0.16848-0.1964 0.16848-0.3385 0-0.129 0.0753-0.2977 0.16847-0.3775 0.0932-0.0798 0.16848-0.2485 0.16848-0.3776 0-0.142 0.0659-0.2744 0.16848-0.3385 0.10676-0.0666 0.16847-0.1964 0.16847-0.3542 0-0.1628 0.0583-0.2803 0.16848-0.3392 0.10962-0.0587 0.16848-0.1764 0.16848-0.337 0-0.1605 0.0589-0.27825 0.16844-0.33691 0.1066-0.05703 0.1685-0.17638 0.1685-0.32473 0-0.14521 0.0802-0.30431 0.2106-0.41767 0.1298-0.11281 0.2106-0.27257 0.2106-0.41612 0-0.14178 0.066-0.2742 0.1685-0.33822 0.1302-0.08132 0.1685-0.19645 0.1685-0.50698 0-0.29751 0.0437-0.43918 0.1684-0.54601 0.0927-0.07934 0.1685-0.2311 0.1685-0.33725 0-0.12415 0.1803-0.37141 0.5054-0.69315 0.3131-0.30979 0.5055-0.5707 0.5055-0.6855 0-0.11662 0.203-0.3854 0.5475-0.72488 0.3464-0.34128 0.5476-0.60801 0.5476-0.72591 0-0.1254 0.2641-0.44031 0.8074-0.96253 2.3389-2.2483 2.4779-2.3952 2.4779-2.6195l1.5155-0.22047c1.4244 0 1.522-0.01015 1.6208-0.16848 0.1227-0.19636 0.5702-0.23649 0.5702-0.05113 0 0.26598 0.7017 0.3076 0.8619 0.05113 0.1477-0.23659 0.8216-0.24049 0.9682-0.0056 0.0986 0.15784 0.2018 0.16133 3.3462 0.11309l3.4206 0.17409 1.7939 0.22386c1.5136 0 1.6271 0.01085 1.762 0.16848 0.1172 0.13682 0.2485 0.16847 0.6992 0.16847 0.5041 0 0.5779 0.02308 0.8075 0.25272l-5e-4 0.25271c-0.2995 0-0.5179 0.19081-0.5179 0.45248 0 0.50761 0.583 0.53754 1.0592 0.05437 0.3973-0.40312 1.2862-0.50943 1.4651-0.17522 0.0527 0.09841 0.1959 0.17362 0.361 0.18954 0.494 0.04764 0.4274 0.39315-0.1923 0.99769-0.6342 0.61864-0.6249 0.75558 0.0513 0.75558 0.4705 0 0.48-5e-3 0.9621-0.50543 0.6588-0.68375 1.6864-0.76166 2.2223-0.16847 0.2265 0.2507 0.3692 0.33695 0.5574 0.33695 0.2218 0 0.2529 0.02951 0.2529 0.23946 0 0.32955 0.7927 1.1667 1.1425 1.2065 0.4241 0.0483 0.4288 0.91268 5e-3 0.91268-0.2196 0-0.3071 0.04246-0.3471 0.16848-0.0372 0.11724-0.1274 0.16848-0.2967 0.16848-0.1786 0-0.3397 0.10083-0.6051 0.37873-0.2288 0.23959-0.435 0.37886-0.561 0.37907-0.1338 2.6e-4 -0.3566 0.16626-0.6787 0.50577-0.2985 0.31473-0.5483 0.50543-0.662 0.50543-0.5276 0-2.2087 1.9792-2.2087 2.6004 0 0.7638 0.6641 1.5273 1.3284 1.5273 0.3384 0 0.4022 0.0415 1.0354 0.6739 0.6609 0.66 0.6834 0.6739 1.0901 0.6739 0.329 0 0.4339 0.035 0.5053 0.1685 0.0578 0.108 0.1764 0.1685 0.3303 0.1685 0.1631 0 0.2843 0.0675 0.378 0.2106 0.0954 0.1456 0.2144 0.2106 0.3858 0.2106 0.1616 0 0.2792 0.0586 0.338 0.1684 0.0587 0.1097 0.1764 0.1685 0.337 0.1685 0.1605 0 0.2782 0.0589 0.3369 0.1685 0.0709 0.1324 0.1764 0.1685 0.4932 0.1685 0.3249 0 0.4385 0.0408 0.5862 0.2106 0.1615 0.1858 0.2501 0.2106 0.753 0.2106 0.4788 0 0.5868 0.0269 0.6752 0.1684 0.164 0.2626 4.5964 0.2626 4.7369 0 0.0715-0.1337 0.1764-0.1684 0.5077-0.1684 0.3263 0 0.4405-0.0369 0.5227-0.1685 0.2111-0.338 0.7362-0.2315 1.2332 0.2501 0.4936 0.4782 0.511 0.5419 0.2214 0.8102-0.1358 0.126-0.2106 0.2863-0.2106 0.4519 0 0.1633-0.0427 0.2568-0.1173 0.2568-0.1293 0-0.2196 0.1772-0.2196 0.4307 0 0.0903-0.1516 0.3036-0.337 0.474-0.2944 0.2707-0.3369 0.3563-0.3369 0.6778 0 0.4352-0.3483 0.8604-0.7048 0.8604-0.1168 0-0.2654 0.0758-0.3303 0.1685-0.1128 0.1611-0.2468 0.1709-3.0417 0.2243-2.7188 0.0519-2.9296 0.0667-3.0066 0.2106-0.0483 0.0902-0.1756 0.1547-0.3052 0.1547-0.1674 0-0.3975 0.1771-0.9304 0.7161-0.3894 0.3938-0.7234 0.716-0.7422 0.716s-0.3362 0.3033-0.7054 0.6739c-0.4554 0.4573-0.7342 0.6739-0.8673 0.6739-0.1267 0-0.3146 0.1341-0.5304 0.3784-0.2637 0.2985-0.3909 0.3785-0.6024 0.3791-0.1937 5e-4 -0.2829 0.0474-0.3215 0.1691-0.0294 0.0927-0.1114 0.1685-0.1821 0.1685s-0.1484 0.0758-0.1726 0.1685c-0.033 0.1261-0.1149 0.1685-0.3261 0.1685-0.1958 0-0.3096 0.0515-0.3722 0.1684-0.0533 0.0996-0.1764 0.1685-0.3009 0.1685-0.1391 0-0.3362 0.129-0.5792 0.3791-0.247 0.2541-0.4394 0.3791-0.5836 0.3791-0.1289 0-0.2513 0.0675-0.3053 0.1684-0.055 0.1028-0.1764 0.1685-0.3112 0.1685-0.1621 0-0.3606 0.1459-0.7448 0.5476-0.356 0.372-0.5879 0.5476-0.7237 0.5479-0.1343 3e-4 -0.3633 0.1702-0.6979 0.5179l-1.2879 0.5588c-0.6583 0.0344-0.8039 0.0675-0.8739 0.1981-0.0528 0.0987-0.1763 0.1569-0.3329 0.1569-0.1578 0-0.2876 0.0617-0.3543 0.1684-0.0699 0.1119-0.1964 0.1685-0.3768 0.1685-0.1854 0-0.3002 0.0535-0.3618 0.1685-0.0769 0.1437-0.1764 0.1685-0.6761 0.1685-0.4948 0-0.6024 0.0262-0.6912 0.1685-0.0951 0.1522-0.1965 0.1684-1.0518 0.1684-0.9167 0-0.9509 7e-3 -1.0845 0.2106-0.1352 0.2064-0.1595 0.2106-1.2094 0.2106-1.1646 0-1.2708-0.0276-0.9905-0.2579 0.294-0.2415 0.1075-0.4518-0.4288-0.4834-0.3807-0.0225-0.4446-1e-3 -0.5696 0.1895-0.0774 0.1182-0.1907 0.2149-0.2518 0.2149s-0.1352 0.0764-0.1648 0.1697c-0.0731 0.2302-0.2102 0.1272-0.2102-0.1579 0-0.5627-0.4979-0.5907-0.9715-0.0547-0.2676 0.3031-0.3893 0.3786-0.6106 0.3791-0.1675 4e-4 -0.2956 0.0505-0.3249 0.127-0.0949 0.2474-0.199 0.1207-0.199-0.2424 0-0.2881 0.0414-0.397 0.1896-0.4976 0.1547-0.1051 0.1725-0.1573 0.0968-0.284-0.1371-0.2295-0.5886-0.2507-0.724-0.034-0.0656 0.1051-0.1974 0.1735-0.3341 0.1735-0.1553 0-0.3442 0.1184-0.6049 0.3791-0.2506 0.2506-0.4517 0.379-0.5934 0.379-0.128 0-0.2505 0.0678-0.3044 0.1685-0.0522 0.0975-0.1764 0.1685-0.2948 0.1685-0.1185 0-0.2427-0.071-0.2949-0.1685zm8.1368-0.5475c0.1022-0.156 0.2119-0.2106 0.4231-0.2106 0.1568 0 0.2852-0.0382 0.2852-0.0848s0.0948-0.1672 0.2105-0.2679c0.1316-0.1144 0.2106-0.2723 0.2106-0.4207 0-0.2062 0.0324-0.2375 0.2457-0.2375 0.1677 0 0.2965-0.0697 0.4056-0.2196h0.3039c0.1947 0.2972 0.5877 0.3017 0.7795 9e-3 0.1141-0.1742 0.2054-0.2107 0.5284-0.2115 0.6296-1e-3 1.1906-0.7236 0.8369-1.0773-0.1772-0.1772-0.9756-0.1282-1.0978 0.0674-0.0884 0.1415-0.1964 0.1685-0.6754 0.1685-0.466 0-0.5966 0.0308-0.7145 0.1684-0.0793 0.0927-0.2324 0.1685-0.3402 0.1685-0.1077 0-0.2837 0.0948-0.391 0.2106-0.1698 0.1832-0.2667 0.2106-0.7453 0.2106-1.0326 0-1.4801 0.9199-0.7995 1.6434 0.3283 0.3489 0.3574 0.3534 0.5343 0.0835zm-8.4372-2.6227c0.4876-0.4876 0.0709-0.8556-1.0088-0.8907l-0.7801-0.4669c-0.0274-0.476 0.0318-0.5387 0.2586-0.2738 0.1069 0.1248 0.2486 0.1685 0.5461 0.1685 0.3105 0 0.4256 0.0383 0.5069 0.1685 0.0885 0.1418 0.1965 0.1685 0.6811 0.1685 0.469 0 0.6043 0.0313 0.7284 0.1684 0.1398 0.1545 0.2595 0.1685 1.4421 0.1685 1.2035 0 1.2957 0.0113 1.3799 0.1685 0.0804 0.1502 0.1764 0.1685 0.8845 0.1685s0.8041 0.0183 0.8845 0.1685c0.0578 0.1079 0.1764 0.1684 0.3302 0.1684 0.1631 0 0.2843 0.0675 0.3781 0.2106 0.1888 0.2881 1.2231 0.318 1.4593 0.0421 0.0793-0.0927 0.2324-0.1685 0.3402-0.1685 0.1077 0 0.2837-0.0948 0.391-0.2105 0.1523-0.1643 0.2783-0.2106 0.5726-0.2106 0.2705 0 0.4207-0.0478 0.5299-0.1685 0.1379-0.1524 0.2595-0.1685 1.2737-0.1685 1.035 0 1.1281-0.013 1.2114-0.1685 0.0716-0.1337 0.1763-0.1685 0.5076-0.1685 0.3263 0 0.4405-0.0368 0.5228-0.1684 0.0895-0.1433 0.1964-0.1685 0.716-0.1685s0.6265-0.0252 0.716-0.1685c0.0813-0.1302 0.1965-0.1685 0.507-0.1685 0.2975 0 0.4392-0.0437 0.546-0.1684 0.0793-0.0927 0.232-0.1685 0.3393-0.1685 0.1203 0 0.3359-0.1451 0.5634-0.3791 0.3432-0.3531 0.3983-0.3791 0.805-0.3791 0.3657 0 0.4437-0.0273 0.4806-0.1684 0.033-0.1262 0.1149-0.1685 0.3261-0.1685 0.1959 0 0.3097-0.0515 0.3723-0.1685 0.059-0.1101 0.1763-0.1685 0.3392-0.1685 0.1578 0 0.2875-0.0617 0.3542-0.1684 0.0579-0.0927 0.1878-0.1685 0.2887-0.1685 0.2386 0 0.4499-0.0828 0.4499-0.1763 0-0.0407 0.3222-0.392 0.716-0.7805 0.7124-0.7028 0.7161-0.7086 0.7161-1.1354 0-0.3468 0.0332-0.4468 0.1732-0.5218 0.1356-0.0726 0.1676-0.1601 0.1474-0.4031-0.0323-0.3882-0.8146-0.5224-1.1144-0.1911-0.152 0.1679-0.1538 0.1676-0.3955-0.074-0.2864-0.2864-0.3199-0.6298-0.0743-0.7612 0.4666-0.2497 0.1259-0.7805-0.4762-0.742-0.5263 0.0337-0.6951 0.3497-0.3711 0.6946 0.1937 0.2062-0.1204 0.81-0.3481 0.6692-0.1768-0.1092-0.0751-1.9444 0.1147-2.0705 0.2669-0.1772 0.1209-0.3203-0.3268-0.3203-0.4543 0-0.9174-0.3887-0.9656-0.8103-0.0366-0.3207-0.5186-0.4031-0.7153-0.1223-0.3133 0.4472-1.0393-0.0877-1.0393-0.7657 0-0.3112-0.0368-0.4214-0.1631-0.4891-0.0984-0.0526-0.1737-0.1959-0.1896-0.3609-0.0807-0.8368-1.0793-0.1743-1.0793 0.716 0 0.4664-0.0285 0.5661-0.2106 0.7372-0.2066 0.1941-0.2106 0.222-0.2106 1.4686 0 1.1795-0.0121 1.2783-0.1685 1.3759-0.1317 0.0823-0.1685 0.1965-0.1685 0.5228 0 0.3313-0.0348 0.4361-0.1684 0.5076-0.1319 0.0705-0.1686 0.1766-0.1689 0.4874-2e-4 0.3607-0.0351 0.4304-0.379 0.7589-0.2343 0.2237-0.3788 0.4357-0.3788 0.5556 0 0.1065-0.0758 0.2624-0.1684 0.3462-0.0927 0.0838-0.1685 0.2374-0.1685 0.3411 0 0.2694-0.4401 0.7119-0.7079 0.7119-0.1488 0-0.3169 0.1082-0.5236 0.337-0.19 0.2103-0.3785 0.3369-0.5015 0.3369-0.1237 0-0.3317 0.141-0.5588 0.3787-0.2546 0.2666-0.4295 0.3789-0.5904 0.3791-0.1423 3e-4 -0.2628 0.064-0.3189 0.1688-0.0818 0.1528-0.1764 0.1685-1.0146 0.1685-0.8203 0-0.9408 0.019-1.0688 0.1685-0.134 0.1566-0.2485 0.1685-1.6215 0.1685-1.3861 0-1.4838-0.0104-1.5826-0.1685-0.0667-0.1068-0.1964-0.1685-0.3542-0.1685-0.1628 0-0.2803-0.0583-0.3392-0.1685-0.0589-0.1101-0.1764-0.1684-0.3392-0.1684-0.1578 0-0.2876-0.0617-0.3543-0.1685-0.0599-0.0959-0.1964-0.1685-0.3169-0.1685-0.149 0-0.3718-0.1622-0.7522-0.5476-0.336-0.3404-0.6097-0.5475-0.7237-0.5475-0.1008 0-0.2518-0.0758-0.3357-0.1685s-0.2338-0.1685-0.3332-0.1685c-0.2305 0-0.3828-0.1523-0.3828-0.3828 0-0.0994-0.0758-0.2493-0.1685-0.3332s-0.1685-0.233-0.1685-0.3314c0-0.1083-0.2158-0.3928-0.5475-0.7216-0.4977-0.4932-0.5476-0.5743-0.5476-0.89 0-0.2404-0.0519-0.3944-0.1684-0.4999-0.1233-0.1115-0.1685-0.2594-0.1685-0.5509 0-0.3379-0.0339-0.4206-0.2229-0.5445l-0.1713-1.0486c0.0365-0.6374 0.0228-0.9314-0.0467-1.0009-0.1604-0.1604-0.5267-0.1131-0.7056 0.0913-0.0913 0.1042-0.2846 0.2888-0.4297 0.4101-0.1567 0.1311-0.275 0.3179-0.2915 0.4603-0.0219 0.1893-0.081 0.2508-0.2804 0.2923-0.6449 0.1339-0.8003 0.456-0.8003 1.658 0 1.2408-0.0155 1.2833-0.3472 0.9516-0.217-0.217-0.2425-0.2994-0.2425-0.7861 0-0.6943-0.0637-0.7475-0.8556-0.7156-0.68824 0.0277-0.98495 0.4043-0.3735 0.474 0.5744 0.0655 0.7237 0.3859 0.7237 1.5529 0 1.1269 0.492 1.9993 1.1275 1.9993 0.1277 0 0.2627 0.0702 0.3241 0.1685 0.0579 0.0927 0.1958 0.1684 0.3065 0.1684 0.1841 0 0.6349 0.3606 1.132 0.9056 0.0951 0.1042 0.2637 0.1895 0.3748 0.1895 0.2411 0 0.7689 0.4837 0.5956 0.5458-0.0615 0.0221-0.3772 0.0504-0.7016 0.0631-1.1907 0.0463-0.6909 1.1575 0.5214 1.1593l0.6318 0.3168c0.0233 0.2818 0.0534 0.3188 0.2789 0.3429 0.139 0.0149 0.3395 0.1192 0.4457 0.2317 0.3135 0.3324 0.8431 0.2889 1.2334-0.1015zm4.8267-3.8216c0.1196-0.1397 0.2485-0.1684 0.7544-0.1684 0.5239 0 0.6228 0.0238 0.7002 0.1684 0.1878 0.3509 1.2415 0.24 1.6006-0.1684 0.1888-0.2148 0.3675-0.3356 0.4969-0.3362 0.2944-1e-3 0.8168-0.5549 0.6795-0.7203-0.1883-0.2269-1.1405-0.1655-1.3607 0.0877-0.161 0.1853-0.2506 0.2106-0.7445 0.2106-0.4544 0-0.5905 0.0321-0.7139 0.1685-0.2755 0.3044-0.7891 0.2311-1.1793-0.1685l-1.0525-0.337-1.0956-0.379c-0.2483-0.253-0.4435-0.3791-0.5869-0.3791-0.1237 0-0.2596-0.0715-0.3202-0.1685-0.0667-0.1067-0.1964-0.1685-0.3542-0.1685-0.1628 0-0.2803-0.0583-0.3392-0.1684-0.1281-0.2393-0.1853-0.2183-0.666 0.2451-0.5855 0.5643-0.5529 0.6815 0.1893 0.6815 0.2607 0 0.3792 0.0437 0.4571 0.1685 0.0633 0.1014 0.1971 0.1688 0.3362 0.1693 0.1631 6e-4 0.3175 0.0993 0.5258 0.3361 0.1991 0.2265 0.3651 0.3356 0.5113 0.3361 0.1251 5e-4 0.2937 0.0897 0.3995 0.2114 0.1008 0.1159 0.2723 0.2106 0.3812 0.2106 0.109 0 0.2668 0.0758 0.3506 0.1685 0.108 0.1194 0.2595 0.1685 0.5193 0.1685 0.2626 0 0.4079-0.0479 0.5111-0.1685zm2.1481-1.432c0.0813-0.1302 0.1964-0.1685 0.507-0.1685 0.2975 0 0.4391-0.0437 0.546-0.1685 0.0793-0.0927 0.2324-0.1684 0.3401-0.1684 0.1078 0 0.2807-0.0915 0.3843-0.2033s0.3008-0.216 0.4382-0.2316c0.2141-0.0243 0.2559-0.0707 0.292-0.3233 0.037-0.2589 0.0747-0.298 0.3096-0.3208 0.3185-0.0309 0.4239-0.1401 0.4622-0.4795 0.0245-0.2172 0.0699-0.2586 0.3233-0.2948 0.2613-0.0373 0.2979-0.0736 0.3214-0.3186 0.0154-0.1605 0.095-0.3193 0.1896-0.3783 0.1227-0.0767 0.1629-0.1974 0.1629-0.4896 0-0.2809 0.0465-0.43 0.1685-0.5404 0.2397-0.2169 0.2427-1.0073 4e-3 -1.1348-0.1245-0.0667-0.1703-0.1945-0.1895-0.5295l-0.3414-0.4678c-0.3161-0.0261-0.3524 0.0104-0.3232 0.3251 7e-3 0.0718-0.0837 0.2205-0.2008 0.3306-0.1874 0.1759-0.2131 0.2691-0.2131 0.7721 0 0.4796-0.0264 0.5862-0.1631 0.6594-0.0984 0.0526-0.1736 0.1959-0.1896 0.3609-0.055 0.5706-0.2757 0.3246-0.3212-0.3581l-0.4611-0.6582c-0.5017-0.0317-0.634-0.125-0.634-0.4472 0-0.266-0.1643-0.324-0.3351-0.1183-0.0567 0.0683-0.2319 0.1483-0.3894 0.1779-0.2822 0.0529-0.2863 0.06-0.2863 0.4936 0 0.5346 0.0574 0.6067 0.3008 0.3781 0.3583-0.3366 0.6633-0.1994 0.693 0.3117 0.025 0.43 0.0223 0.4351-0.4843 0.9184-0.6051 0.5771-0.7283 1.05-0.2737 1.05 0.1298 0 0.2803 0.0444 0.3346 0.0987 0.1476 0.1475-0.3733 0.6573-0.6728 0.6585-0.1398 5e-4 -0.2628 0.0647-0.3165 0.165-0.0666 0.1244-0.1945 0.1702-0.5294 0.1895-0.443 0.0255-0.6438 0.4557-0.4493 0.9624 0.0752 0.196 0.8668 0.1543 0.9959-0.0525zm-14.041-0.4508c0.5482-0.5324 0.0874-1.3837-0.70083-1.2948-0.2965 0.0334-0.38607 0.0109-0.46616-0.1174-0.19041-0.3049-0.94825-0.2215-1.2912 0.1421-0.9224 0.978 1.4806 2.2196 2.4582 1.2701zm37.848-2.2352c0.2002-0.1268 0.0762-0.3863-0.1985-0.4158-0.1386-0.0149-0.3388-0.1191-0.445-0.2316-0.181-0.192-0.2488-0.2046-1.0974-0.2046-0.8002 0-0.9211-0.0194-1.0487-0.1685-0.3644-0.4255-1.915-0.1868-1.915 0.2948 0 0.4574 0.8135 0.6608 1.1794 0.2949h0.3369c0.1519 0.1518 0.2808 0.1684 1.3057 0.1684 0.925 0 1.1372 0.0223 1.1372 0.1194 0 0.1982 0.5054 0.2952 0.7454 0.143zm-2.4106-1.5259c0.1514-0.2424 0.8219-0.2401 0.9739 0.0034 0.2264 0.3625 1.4855 0.1977 1.5181-0.1988 0.0531-0.6445-0.9069-0.8539-1.2284-0.2679h-0.1551c-0.0998-0.2681-0.1926-0.2922-1.133-0.2935-1.1241-0.0016-1.7592 0.4605-0.7896 0.5746 0.1328 0.0157 0.2923 0.101 0.3543 0.1896 0.1457 0.2079 0.3272 0.205 0.4598-0.0074zm-5.0922-0.695c0.0476-0.0579 0.0996-0.1987 0.1156-0.3128 0.0223-0.159 0.0956-0.221 0.3138-0.2653 0.7765-0.1579 0.3382-1.1698-0.5067-1.1698-0.2467 0-0.415-0.0547-0.5455-0.1773-0.2387-0.2243-0.3697-0.1459-0.3697 0.2214 0 0.2007 0.0506 0.314 0.1685 0.377 0.3305 0.1769 0.1608 0.674-0.2301 0.674-0.293 0-0.3115 0.1912-0.0472 0.4877 0.2558 0.287 0.9194 0.3865 1.1013 0.1651zm-20.915-0.1474c0.1086-0.1201 0.2594-0.1685 0.5249-0.1685 0.4425 0 0.865-0.3462 0.865-0.7088 0-0.1252 0.071-0.2608 0.1685-0.3216 0.0927-0.0579 0.1684-0.1438 0.1684-0.191 0-0.0473-0.0758-0.1332-0.1684-0.1911-0.0965-0.0603-0.1685-0.1964-0.1685-0.3187 0-0.3067-0.8188-1.1329-1.1227-1.1329-0.2698 0-0.3042-0.2045-0.0566-0.3369 0.1438-0.077 0.1685-0.1764 0.1685-0.6796 0-0.398 0.0342-0.5998 0.1053-0.6218 0.0579-0.0178 0.2117-0.0558 0.3419-0.0844 0.3777-0.083 0.3067-0.6663-0.0858-0.7042-0.3249-0.0314-0.7761 0.3983-0.7801 0.7429-1e-3 0.1163-0.0758 0.2572-0.1654 0.3132-0.0946 0.059-0.1741 0.2178-0.1896 0.3783-0.0343 0.3566-0.8195 0.4787-0.9931 0.1543-0.1374-0.2567-1.3815-0.2601-1.5185-0.0042-0.0556 0.1039-0.1764 0.1685-0.3149 0.1685-0.2987 0-0.7802 0.4656-0.7802 0.7544 0 0.1247-0.0712 0.2604-0.1685 0.3212-0.4287 0.2677-0.199 1.4095 0.2948 1.4652 0.2173 0.0245 0.2587 0.0698 0.2949 0.3233 0.0369 0.2582 0.075 0.2981 0.307 0.3206 0.1458 0.0142 0.3317 0.0994 0.4132 0.1895 0.1077 0.119 0.2591 0.1638 0.5534 0.1638 0.319 0 0.4244 0.0359 0.4954 0.1685 0.0803 0.15 0.1764 0.1685 0.8744 0.1685 0.6773 0 0.805-0.023 0.9367-0.1685zm4.9279-0.4218c0-0.1651 0.0733-0.3169 0.2106-0.4363 0.5281-0.4592 0.2424-1.0794-0.4972-1.0794-0.7946 0-1.446 0.799-0.8927 1.0951 0.1068 0.0572 0.1684 0.1764 0.1684 0.3259 0 0.3205 0.0444 0.348 0.5616 0.348 0.4433 0 0.4493-0.0034 0.4493-0.2533zm14.618-0.5085c0.1102-0.1783-0.15-0.3447-0.5049-0.3229-0.4367 0.0269-0.5503-0.0437-0.5503-0.342 0-0.1524-0.0679-0.2832-0.1896-0.3649-0.2243-0.1509-0.1716-0.2292 0.2064-0.3065 0.6779-0.1387 0.3526-0.3847-0.5433-0.411-0.857-0.0252-0.9314-0.0608-0.6529-0.3129 0.3651-0.3303-0.6784-1.8097-1.2778-1.8118-0.1264-4e-4 -0.3155-0.1355-0.5306-0.3791-0.2294-0.2596-0.4011-0.3786-0.5475-0.3792-0.1425-5e-4 -0.3112-0.1121-0.5082-0.3361-0.2203-0.2506-0.3589-0.3355-0.5483-0.3361-0.1617-5e-4 -0.2916-0.0619-0.3587-0.16933-0.0667-0.10676-0.1965-0.16848-0.3543-0.16848-0.1628 0-0.2802-0.05832-0.3392-0.16847-0.057-0.10655-0.1764-0.16848-0.3247-0.16848-0.1452 0-0.3043-0.08022-0.4177-0.21059-0.1007-0.11583-0.2715-0.2106-0.3794-0.2106-0.1175 0-0.3293-0.13487-0.5271-0.33554-0.2227-0.22591-0.4054-0.336-0.5594-0.33695-0.1414-8.8e-4 -0.2631-0.06568-0.3188-0.16989-0.0821-0.15339-0.1764-0.16848-1.053-0.16848s-0.9709-0.01509-1.053-0.16848c-0.0821-0.15342-0.1764-0.16847-1.0552-0.16847-0.8739 0-0.975-0.01593-1.0703-0.16848-0.0893-0.14294-0.1965-0.16848-0.7071-0.16848-0.549 0-0.6139-0.01849-0.7398-0.21059-0.1894-0.28906-1.2434-0.32039-1.4172-0.04212-0.1614 0.25844-2.3693 0.25844-2.5076 0-0.1184-0.2212-0.5159-0.2212-0.716 0-0.0839 0.09266-0.2416 0.16847-0.3506 0.16847s-0.2805 0.09477-0.3812 0.2106c-0.1618 0.1861-0.2499 0.21059-0.7569 0.21059-0.4825 0-0.5905 0.02679-0.679 0.16848-0.0825 0.13212-0.1964 0.16848-0.528 0.16848-0.3315 0-0.4455 0.03636-0.528 0.16847-0.0603 0.09651-0.1964 0.16848-0.3187 0.16848-0.3925 0-1.1329 0.84657-1.1329 1.2954 0 0.46606 0.1294 0.57466 0.6447 0.54166 0.4258-0.0273 0.4161-0.0167 0.5891-0.64571 0.0198-0.07201 0.1663 0.03253 0.3957 0.28239l0.7405 0.0097 2.1641-0.35168 1.9219-0.16913c0.1924-0.29355 0.7629-0.29021 1.0412 0.0061l2.0162 0.2106c1.7271 0 1.8236 0.0085 1.9235 0.16848 0.0822 0.13166 0.1964 0.16847 0.5227 0.16847 0.3313 0 0.4362 0.03479 0.5077 0.16848 0.0587 0.1096 0.1764 0.1685 0.337 0.1685 0.1605 0 0.2782 0.0588 0.3369 0.1685 0.0709 0.1324 0.1764 0.1684 0.4937 0.1684 0.3216 0 0.4438 0.0428 0.6014 0.2106 0.1121 0.1193 0.2923 0.2106 0.4156 0.2106 0.1266 0 0.2619 0.0706 0.323 0.1685 0.0667 0.1068 0.1965 0.1685 0.3543 0.1685 0.1628 0 0.2802 0.0583 0.3392 0.1685 0.059 0.1101 0.1763 0.1684 0.3392 0.1684 0.1578 0 0.2876 0.0617 0.3542 0.1685 0.0605 0.097 0.1965 0.1685 0.3202 0.1685 0.1434 0 0.3386 0.1261 0.5869 0.3791 0.3376 0.344 0.4091 0.379 0.7727 0.379 0.3145 0 0.4201 0.0363 0.4909 0.1685 0.0567 0.106 0.1764 0.1685 0.3228 0.1685 0.1604 0 0.3348 0.1046 0.5617 0.3369 0.1814 0.1859 0.4099 0.337 0.5094 0.337 0.0992 0 0.2491 0.0758 0.333 0.1685 0.0839 0.0926 0.2534 0.1684 0.3769 0.1684 0.1339 0 0.2977 0.0843 0.406 0.2088 0.1124 0.1293 0.2323 0.1893 0.315 0.1575 0.0808-0.031 0.2231 0.0343 0.3602 0.1652 0.1692 0.1616 0.3334 0.2231 0.6478 0.2426 0.3781 0.0235 0.4238 0.0478 0.4464 0.2368 0.049 0.4101 0.0682 0.4212 0.7253 0.4212 0.3464 0 0.6539-0.0395 0.6838-0.0879zm-10.658-1.8496c0.0568-0.1061 0.1764-0.1685 0.3231-0.1685 0.3287 0 0.435-0.1441 0.435-0.5896 0-0.5159-0.0954-0.5897-0.7619-0.5897-0.4528 0-0.5889-0.0322-0.7122-0.1685-0.2162-0.2389-0.9245-0.24-1.0521-0.0017-0.1508 0.2818-0.0197 0.5914 0.2504 0.5914 0.5335 0 0.7596 0.0945 0.7596 0.3175 0 0.4131 0.6035 0.898 0.7581 0.6091zm8.4141-5.1385c0.9722-0.98203 1.4754-1.432 1.6014-1.432 0.2223 0 2.1991-1.9264 2.1991-2.1431 0-0.53477-0.2601-0.56738-0.7117-0.08926-0.2469 0.26135-0.4265 0.37908-0.5784 0.37908-0.1341 0-0.2556 0.06593-0.3105 0.16847-0.0541 0.10104-0.1763 0.16848-0.3055 0.16848-0.1547 0-0.3645 0.15436-0.7444 0.54755-0.3257 0.33712-0.598 0.54755-0.7085 0.54755-0.2674 0-2.8747 2.6138-2.8747 2.8818 0 0.94871 0.8182 0.60281 2.4332-1.0286zm-3.0228 0.35217c0-0.2914 0.8388-1.162 1.0438-1.0834 0.1676 0.06432 0.3882-0.15524 0.3882-0.38638 0-0.23605 0.4045-0.65144 0.6344-0.65144 0.2994 0 1.8085-1.527 1.8085-1.83 0-0.47027-0.4156-0.59848-0.7581-0.23388-0.1088 0.11583-0.2784 0.21059-0.3769 0.21059-0.2312 0-0.3813 0.15333-0.3813 0.38942 0 0.25675-1.1016 1.3796-1.3535 1.3796-0.2494 0-0.7504 0.49569-0.7515 0.74356-1e-3 0.25311-0.4363 0.68823-0.6894 0.68939-0.2984 0.0014-0.7624 0.52012-0.7287 0.81462 0.0528 0.46095 1.1645 0.42071 1.1645-0.04216zm-18.211-2.252c0.0307-0.47863 0.1266-0.62734 0.4046-0.62734 0.2977 0 1.7768-1.4781 1.815-1.8137 0.0236-0.20746 0.0715-0.25496 0.2811-0.27861 0.3349-0.03779 0.4633-0.15554 0.4633-0.42485 0-0.13298 0.0696-0.26559 0.1734-0.33039 0.1339-0.08368 0.1674-0.17909 0.1474-0.42039-0.0322-0.38755-0.6427-0.52864-0.8238-0.19037-0.0575 0.10742-0.1768 0.17306-0.3147 0.17306-0.3034 0-1.1198 0.82841-1.1198 1.1362 0 0.21996-0.0294 0.24207-0.4422 0.33254-0.2182 0.0478-0.2317 0.07752-0.2317 0.5095 0 0.37253-0.0317 0.47569-0.1685 0.54891-0.1065 0.05701-0.1684 0.17637-0.1684 0.32472 0 0.14521-0.0802 0.30431-0.2106 0.41767-0.1637 0.14233-0.2106 0.26392-0.2106 0.54589 0 0.67214 0.3631 0.75916 0.4055 0.0972zm9.6189-0.45886c0.0558-0.10441 0.1763-0.16848 0.3168-0.16848 0.2865 0 1.4521-1.1202 1.4521-1.3955 0-0.10935 0.2118-0.3816 0.5476-0.70408 0.354-0.3399 0.5475-0.59239 0.5475-0.71418 0-0.10363 0.0971-0.27285 0.2159-0.37605 0.247-0.21478 0.2552-0.5684 0.0168-0.71774-0.1173-0.07343-0.1721-0.05518-0.2749 0.09155-0.0767 0.10949-0.2382 0.19387-0.4011 0.20959-0.2353 0.02272-0.2784 0.06369-0.3148 0.29946-0.0308 0.19962-0.2292 0.46346-0.737 0.98011-0.4732 0.4813-0.6953 0.77055-0.6958 0.90619-5e-4 0.12608-0.124 0.30748-0.3362 0.49406-0.2559 0.22502-0.3355 0.35723-0.3361 0.55834-5e-4 0.17634-0.0613 0.30366-0.1837 0.38491-0.1067 0.0709-0.1572 0.16279-0.1213 0.22087 0.0907 0.1467 0.2023 0.12137 0.3042-0.06902zm-22.298 12.354c-0.037-0.062-0.13987-0.1523-0.2285-0.2006-0.15527-0.0846-0.1545-0.0899 0.0211-0.1456 0.1336-0.0424 0.1822-0.1254 0.1822-0.3113 0-0.1994 0.11683-0.3709 0.54755-0.8038 0.30115-0.3026 0.54755-0.5865 0.54755-0.6309 0-0.0443 0.10424-0.0686 0.23165-0.054 0.31718 0.0365 0.41475 1.192 0.10885 1.2891-0.0946 0.03-0.17203 0.1089-0.17203 0.1753s-0.0348 0.1207-0.0774 0.1207-0.23518 0.1516-0.42807 0.3369c-0.35967 0.3456-0.61392 0.4234-0.7329 0.2242zm-1.7942-0.6954c0-0.0738-0.075807-0.154-0.16847-0.1783-0.15238-0.0398-0.16848-0.1149-0.16848-0.7855 0-0.8065-0.04274-1.0079-0.21393-1.0079-0.06142 0-0.13573-0.0758-0.16514-0.1685-0.02941-0.0926-0.10778-0.1684-0.17415-0.1684-0.30744 0-0.12016-0.4543 0.38475-0.9332 0.27799-0.2637 0.50543-0.5173 0.50543-0.5636s0.07581-0.1039 0.16848-0.1282c0.14184-0.0371 0.16858-0.1152 0.16915-0.4942 6.4e-4 -0.4272 0.01989-0.4671 0.37908-0.7843 0.34311-0.3031 0.37847-0.3699 0.37922-0.7161 7.6e-4 -0.3391 0.0383-0.4147 0.33613-0.6766 0.25822-0.2271 0.33548-0.3565 0.33612-0.5629 6.3e-4 -0.1937 0.0476-0.283 0.16931-0.3216 0.12024-0.0382 0.16847-0.1275 0.16847-0.31191 0-0.16746 0.0741-0.32714 0.2106-0.45361 0.11846-0.10978 0.21059-0.28907 0.21059-0.40979 0-0.1789 0.0393-0.21462 0.23587-0.21462 0.28834 0 0.43804-0.13725 0.43804-0.40161 0-0.13161 0.16912-0.367 0.49716-0.692 0.56779-0.56252 0.69732-0.89629 0.43869-1.1304-0.15981-0.14463-0.17228-0.14223-0.35533 0.0683-0.10586 0.12175-0.27931 0.21818-0.39241 0.21818-0.27545 0-1.1147 0.85682-1.1147 1.138 0 0.11765-0.0713 0.24199-0.16848 0.29403-0.10962 0.05867-0.16847 0.17638-0.16847 0.33695s-0.0589 0.27829-0.16848 0.33695c-0.11773 0.063-0.16848 0.17638-0.16848 0.37636 0 0.21221-0.0435 0.30002-0.16847 0.33967-0.12577 0.03992-0.16848 0.12746-0.16848 0.34532 0 0.201-0.0459 0.3087-0.14742 0.3461-0.19764 0.073-0.27094 0.1931-0.27248 0.4466-7.6e-4 0.1172-0.07439 0.257-0.1653 0.3138-0.12214 0.0763-0.17051 0.2158-0.18953 0.5468-0.02436 0.4239-0.0371 0.4456-0.27707 0.4729-0.16137 0.0183-0.36054 0.1466-0.55567 0.358-0.37038 0.4012-0.66697 0.4443-0.66697 0.097 0-0.1413 0.06612-0.2738 0.16848-0.3377 0.10215-0.0638 0.16848-0.1964 0.16848-0.337 0-0.1405 0.06633-0.2731 0.16848-0.3369 0.10676-0.0667 0.16848-0.1965 0.16848-0.3543 0-0.1628 0.05832-0.2802 0.16848-0.3392 0.11772-0.063 0.16847-0.1763 0.16847-0.3763 0-0.2122 0.04355-0.3 0.16848-0.3397 0.12122-0.0385 0.16912-0.1287 0.17077-0.32156 0.0018-0.21078 0.08285-0.33857 0.37908-0.59769l0.37677-1.4531 0.21374-1.1235c0.14258 0 0.33639-0.1262 0.58215-0.37907 0.22438-0.23087 0.44357-0.37908 0.56062-0.37908 0.13086 0 0.41263-0.22851 0.8829-0.71602 0.67009-0.69466 0.70226-0.71603 1.0782-0.71603 0.29625 0 0.41225-0.03967 0.4927-0.16848 0.0641-0.10258 0.19644-0.16847 0.33849-0.16847 0.12903 0 0.29774-0.07529 0.37753-0.16848 0.0793-0.09266 0.2324-0.16848 0.34015-0.16848 0.10774 0 0.28372-0.09477 0.39107-0.21059 0.15369-0.16583 0.27754-0.2106 0.58268-0.2106 0.3013 0 0.40757-0.03748 0.47768-0.16847 0.059-0.11016 0.17638-0.16848 0.3392-0.16848 0.15781 0 0.28758-0.06172 0.35425-0.16848 0.0834-0.13355 0.19645-0.16847 0.5453-0.16847 0.35389 0 0.45779-0.03301 0.53029-0.16848 0.0588-0.10986 0.1763-0.16848 0.3379-0.16848 0.1714 0 0.2904-0.06496 0.3858-0.21059 0.0943-0.14385 0.2148-0.2106 0.3803-0.2106 0.1511 0 0.282-0.06343 0.3476-0.16847 0.0699-0.11189 0.1964-0.16848 0.3768-0.16848 0.1854 0 0.3002-0.05348 0.3618-0.16848 0.0587-0.10962 0.1763-0.16847 0.3369-0.16847s0.2783-0.05886 0.337-0.16848c0.0716-0.13369 0.1763-0.16848 0.5076-0.16848 0.3263 0 0.4405-0.036809 0.5228-0.16848 0.0633-0.10137 0.1964-0.16848 0.3342-0.16848 0.1384 0 0.3094-0.08663 0.432-0.2189 0.2374-0.256 0.5079-0.2424 0.5465 0.02748 0.0197 0.1378-0.1548 0.37055-0.6739 0.89918-1.7803 1.8127-2.0904 2.1583-2.0904 2.3289 0 0.09825-0.1695 0.34711-0.3791 0.55674-0.2212 0.22116-0.3791 0.45683-0.3791 0.56572 0 0.12844-0.3809 0.56431-1.2214 1.3977-0.81984 0.81282-1.2215 1.2707-1.2215 1.3926 0 0.09983-0.0948 0.27053-0.2106 0.37935-0.1193 0.11208-0.2106 0.29224-0.2106 0.41561 0 0.12654-0.0706 0.26184-0.16847 0.32298-0.10676 0.06667-0.16848 0.19645-0.16848 0.35425 0 0.16283-0.0583 0.28026-0.16848 0.33921-0.10962 0.05867-0.16847 0.17638-0.16847 0.33695s-0.0589 0.2783-0.16848 0.337c-0.13244 0.0708-0.16848 0.1763-0.16848 0.4932 0 0.3249-0.0408 0.4385-0.21059 0.5861-0.11843 0.103-0.2106 0.2742-0.2106 0.3913 0 0.122-0.0698 0.2455-0.16847 0.2984-0.11016 0.0589-0.16848 0.1763-0.16848 0.3392 0 0.1578-0.0617 0.2875-0.16848 0.3542-0.11045 0.069-0.16847 0.1965-0.16847 0.3701 0 0.1896-0.0599 0.3041-0.2106 0.4029-0.12773 0.0837-0.21059 0.2175-0.21059 0.34 0 0.2739-0.70091 0.9734-0.9754 0.9734-0.11217 0-0.20394-0.0379-0.20394-0.0842s0.0528-0.0843 0.11734-0.0843c0.13259 0 0.21961-0.1782 0.21961-0.4499 0-0.1009 0.0758-0.2308 0.16848-0.2887 0.10144-0.0633 0.1688-0.1971 0.1693-0.3361 6.3e-4 -0.1631 0.0993-0.3176 0.33613-0.5258 0.22647-0.1991 0.33557-0.3651 0.33612-0.5113 5.1e-4 -0.1251 0.0897-0.2937 0.21143-0.3996 0.16956-0.1474 0.21059-0.2613 0.21059-0.5846 0-0.3102 0.0383-0.4253 0.16848-0.5067 0.10259-0.064 0.16848-0.1964 0.16848-0.3384 0-0.1291 0.0753-0.2978 0.16847-0.3776 0.0932-0.0798 0.16848-0.24848 0.16848-0.37752 0-0.14204 0.0659-0.27442 0.16848-0.33849 0.10675-0.06667 0.16847-0.19644 0.16847-0.35425 0-0.16282 0.0583-0.28025 0.16848-0.3392 0.13145-0.07035 0.16885-0.17745 0.17017-0.48734 2e-3 -0.35754 0.0393-0.43456 0.37907-0.77195 0.2221-0.22057 0.37738-0.45206 0.37738-0.56259 0-0.12241 0.2365-0.42494 0.67917-0.8688 0.60393-0.60553 0.67623-0.71121 0.65283-0.9537-0.0549-0.56885-1.0793-0.22355-1.0793 0.3638 0 0.12849-0.39143 0.57149-1.2636 1.4301-0.97694 0.96175-1.2636 1.2929-1.2636 1.46 0 0.12988-0.0672 0.25207-0.16848 0.30626-0.10655 0.05702-0.16848 0.17638-0.16848 0.32473 0 0.1452-0.0802 0.30431-0.21059 0.41766-0.11583 0.10072-0.2106 0.26971-0.2106 0.37555s-0.0758 0.25736-0.16847 0.33666c-0.0992 0.085-0.16848 0.2485-0.16848 0.3978 0 0.1395-0.0323 0.2536-0.0717 0.2536-0.17655 0-0.60229 0.5196-0.60446 0.7378-2e-3 0.1666-0.10721 0.3227-0.37907 0.5605l-0.37677 0.9026c0 0.4868-0.0254 0.5866-0.16848 0.6632-0.115 0.0615-0.16848 0.1763-0.16848 0.3617 0 0.1804-0.0566 0.307-0.16847 0.3769-0.099 0.0618-0.16848 0.1964-0.16848 0.3265 0 0.1278-0.0889 0.3037-0.2106 0.4164-0.11582 0.1074-0.21059 0.2826-0.21059 0.3895s-0.0758 0.2417-0.16848 0.2996c-0.0995 0.0621-0.16847 0.1965-0.16847 0.328 0 0.1512-0.10603 0.3208-0.32945 0.527-0.21135 0.1951-0.33968 0.3943-0.35801 0.5557-0.0245 0.2156-0.068 0.2553-0.30509 0.2781-0.16048 0.0154-0.31923 0.095-0.37828 0.1895-0.12739 0.204-0.56666 0.2263-0.56666 0.0287zm1.4887-2.4306c0.38761-0.3939 0.61727-0.6959 0.61727-0.8116 0-0.1014 0.0948-0.2722 0.2106-0.3795 0.17104-0.1585 0.21059-0.275 0.21059-0.6204 0-0.3073 0.0326-0.4252 0.11735-0.4252 0.15151 0 0.21961-0.185 0.21961-0.5967 0-0.2745 0.0568-0.3852 0.33695-0.6571 0.22167-0.2151 0.33695-0.4014 0.33695-0.5445 0-0.1313 0.0668-0.2532 0.16848-0.3077 0.13525-0.0724 0.16861-0.1768 0.16915-0.5294 6.4e-4 -0.4144 0.0221-0.45823 0.37908-0.77355 0.25969-0.22939 0.37865-0.40116 0.37922-0.54755 5e-4 -0.14252 0.1121-0.31115 0.33612-0.50814 0.35656-0.31353 0.48582-0.99678 0.23587-1.2467-0.30759-0.30759-1.0782 0.16256-1.0782 0.65779 0 0.13859-0.0341 0.25198-0.0758 0.25198-0.17728 0-0.68233 0.61477-0.68233 0.83055 0 0.1328-0.0686 0.26687-0.16848 0.32924-0.10215 0.06379-0.16848 0.19645-0.16848 0.33695 0 0.14051-0.0663 0.27316-0.16847 0.33696-0.10505 0.0656-0.16848 0.1964-0.16848 0.3475 0 0.1655-0.0667 0.2861-0.2106 0.3803-0.14564 0.0955-0.21059 0.2145-0.21059 0.3858 0 0.1616-0.0586 0.2792-0.16848 0.338-0.10962 0.0587-0.16847 0.1764-0.16847 0.337 0 0.1605-0.0589 0.2782-0.16848 0.3369-0.115 0.0615-0.16848 0.1764-0.16848 0.3618 0 0.1804-0.0566 0.3069-0.16847 0.3768-0.099 0.0618-0.16848 0.1964-0.16848 0.3265 0 0.1278-0.0889 0.3037-0.2106 0.4165-0.11582 0.1073-0.21059 0.2826-0.21059 0.3895s-0.07581 0.2417-0.16848 0.2996c-0.10676 0.0666-0.16848 0.1964-0.16848 0.3542 0 0.1628-0.05832 0.2803-0.16847 0.3392-0.21822 0.1168-0.22001 0.4235-0.0028 0.4803 0.09113 0.0238 0.18845 0.1151 0.21627 0.2027 0.08946 0.2819 0.30748 0.1731 0.93825-0.468zm42.273-1.7313c-0.0304-0.0492 0.0556-0.0842 0.2064-0.0842 0.1543 0 0.3167-0.068 0.4028-0.1685 0.0793-0.0927 0.232-0.1685 0.3393-0.1685 0.1204 0 0.336-0.145 0.5634-0.379 0.249-0.2562 0.4389-0.3791 0.5858-0.3791 0.1262 0 0.2616-0.0707 0.3226-0.1685 0.0579-0.0927 0.1878-0.1685 0.2887-0.1685 0.2716 0 0.4499-0.087 0.4499-0.2196 0-0.0861 0.1235-0.1173 0.4633-0.1173l0.4634 0.3445c0 0.5044-0.6868 1.1711-1.2083 1.1731-0.3895 0.0014-0.5052 0.0553-0.5853 0.2724-0.0626 0.1696-2.19 0.2283-2.292 0.0632zm-2.822-0.7165c0-0.307 0.808-0.7998 1.3115-0.7998 0.4392 0 0.5711-0.0323 0.6877-0.1684 0.0793-0.0927 0.2324-0.1685 0.3401-0.1685s0.2837-0.0948 0.3911-0.2106c0.1073-0.1158 0.2815-0.2106 0.3871-0.2106 0.2475 0 0.7554-0.4923 0.7566-0.7333 3e-3 -0.59204 1.2439-0.8801 1.7239-0.4001 0.3377 0.3377-0.2467 1.3019-0.7892 1.3019-0.101 0-0.2716 0.0947-0.3789 0.2106-0.1118 0.1206-0.2888 0.2106-0.4142 0.2106-0.1328 0-0.2545 0.0663-0.3092 0.1684-0.0589 0.1102-0.1764 0.1685-0.3392 0.1685-0.1578 0-0.2876 0.0617-0.3543 0.1685-0.0638 0.1021-0.1964 0.1685-0.3369 0.1685s-0.2732 0.0663-0.337 0.1684c-0.0994 0.1592-2.3391 0.2797-2.3391 0.1259zm-3.2268-1.0221c-0.105-0.1049 0.0393-0.1989 0.3053-0.1989 0.1784 0 0.3052-0.057 0.3748-0.1684 0.0667-0.1068 0.1965-0.1685 0.3543-0.1685 0.1628 0 0.2802-0.0583 0.3392-0.1685 0.0708-0.1322 0.1763-0.1685 0.4908-0.1685 0.3596 0 0.4323-0.0345 0.7104-0.3369 0.202-0.2197 0.3827-0.337 0.5193-0.337 0.1384 0 0.3322-0.1284 0.5712-0.37871 0.222-0.23235 0.4362-0.37887 0.5544-0.37907 0.2806-5.1e-4 1.4277-1.1627 1.4644-1.4838 0.0357-0.31245 0.4416-0.40561 0.5316-0.122 0.0303 0.09536 0.1068 0.17338 0.1701 0.17338s0.1373 0.07039 0.1646 0.15643 0.1341 0.19575 0.2373 0.2438c0.1832 0.08526 0.1836 0.08897 0.0192 0.15332-0.2233 0.08741-0.2919 0.19932-0.2935 0.47837-1e-3 0.2008-0.0349 0.23165-0.2533 0.23165-0.1608 0-0.2901 0.06099-0.3572 0.16848-0.0636 0.1018-0.1965 0.16848-0.3357 0.16848-0.153 0-0.277 0.07089-0.3685 0.21059-0.0943 0.14385-0.2148 0.21055-0.3803 0.21055-0.2295 0-0.7492 0.4178-0.7492 0.6022 0 0.0395-0.1314 0.0717-0.2919 0.0717-0.2056 0-0.3185 0.0498-0.382 0.1685-0.0716 0.1337-0.1764 0.1685-0.5077 0.1685-0.3263 0-0.4405 0.0368-0.5227 0.1685-0.0885 0.1417-0.1965 0.1685-0.6787 0.1685-0.5034 0-0.5972 0.0257-0.7686 0.2106-0.1888 0.2037-0.7711 0.3032-0.9176 0.1567zm-1.4063-1.4279c0-0.1575 0.49-0.53997 0.6917-0.53997 0.1428 0 0.2629-0.06344 0.3192-0.16847 0.0567-0.10592 0.1763-0.16848 0.3223-0.16848 0.163 0 0.3244-0.10029 0.542-0.33695 0.1814-0.19735 0.3866-0.33696 0.4953-0.33696 0.1099 0 0.3335-0.15448 0.5487-0.37907 0.2465-0.25723 0.433-0.37907 0.5803-0.37907 0.1644 0 0.4281-0.21488 1.0857-0.8845 1.0903-1.1103 1.5642-1.2499 1.5642-0.46067 0 0.29413-0.0377 0.4383-0.1232 0.47109-0.0677 0.02599-0.1461 0.11957-0.1741 0.20795-0.0359 0.11313-0.1304 0.16126-0.3191 0.1626-0.2065 0.0015-0.3346 0.07883-0.5579 0.33696-0.1843 0.21307-0.3618 0.33504-0.4875 0.33504-0.1236 0-0.3359 0.14214-0.5661 0.37908-0.247 0.25415-0.4394 0.37907-0.5836 0.37907-0.1289 0-0.2513 0.06751-0.3053 0.16848-0.0567 0.10591-0.1764 0.16847-0.3223 0.16847-0.1631 0-0.3244 0.10029-0.542 0.33696-0.2003 0.21781-0.3831 0.33694-0.517 0.33694-0.2059 0-0.472 0.1934-0.472 0.343 0 0.043-0.2653 0.0782-0.5896 0.0782s-0.5897-0.0224-0.5897-0.0497z"/>
</svg>
